<svg version="1.2" baseProfile="tiny-ps" xmlns="http://www.w3.org/2000/svg" viewBox="0 0 643 239" width="643" height="239">
	<title>Search</title>
	<style>
		tspan { white-space:pre }
		.shp0 { fill: #fdfefe } 
		.shp1 { fill: #f5ab75 } 
		.shp2 { fill: #ed4638 } 
		.shp3 { fill: #f7d3a8 } 
		.shp4 { fill: #577ebd } 
		.shp5 { fill: #c1d1db } 
		.shp6 { fill: #f8bf17 } 
		.shp7 { fill: #3aa656 } 
		.shp8 { fill: #8597c0 } 
	</style>
	<g id="Background">
		<path id="Path 0" class="shp0" d="M0 119.5L0 239L643 239L643 0L0 0L0 119.5Z" />
		<path id="Path 1" class="shp1" d="M518.5 31.22C518.22 31.92 518.1 63.77 518.25 102L518.51 171.5L519 31L540 31L540.5 81L540.5 30.5C521.74 30 518.89 30.26 518.5 31.22Z" />
		<path id="Path 2" class="shp2" d="M519 101.5L519 172L540 172C540.04 163.09 540.04 147.56 540.03 131.75C540 107.31 540.24 102.51 541.61 99.75C542.49 97.96 544.18 95.7 545.36 94.72C546.54 93.73 549.19 92.05 551.25 90.97C553.77 89.65 556.97 89 561 89C564.67 89 568.4 89.68 570.62 90.75C572.61 91.71 575.19 94.08 576.37 96C578.43 99.38 578.51 100.73 578.75 135.75L579 172L601 172C600.42 96.38 600.36 95.36 598.08 89.5C596.51 85.47 594.14 81.94 590.87 78.75C587.4 75.37 584.49 73.57 580.75 72.49C577.86 71.66 572.24 70.98 568.25 70.99C563.9 71 559.3 71.66 556.75 72.66C554.41 73.57 550.36 75.82 547.75 77.66C545.14 79.49 542.33 81 541.5 81C540.21 81 540 77.56 540 56L540 31L519 31L519 101.5Z" />
		<path id="Path 3" class="shp3" d="M541.42 52.5C541.42 63.5 541.57 68.22 541.74 63C541.92 57.77 541.92 48.78 541.75 43C541.57 37.22 541.42 41.5 541.42 52.5Z" />
		<path id="Path 4" class="shp4" d="M73.5 37.02C70.75 37.52 66.04 38.74 63.03 39.72C60.01 40.7 55.31 43.08 52.57 45C49.83 46.92 45.88 50.75 43.78 53.5C41.69 56.25 39.43 60.3 38.75 62.5C38.08 64.7 37.52 69.88 37.51 74C37.5 80.09 38 82.53 40.16 87C41.69 90.17 45.1 94.62 48.21 97.5C51.26 100.33 57.26 104.29 62.05 106.63C66.7 108.91 74.55 111.99 79.5 113.48C84.45 114.97 91.65 117.67 95.5 119.47C99.35 121.26 103.59 123.81 104.93 125.12C106.27 126.43 107.95 128.96 108.68 130.75C109.41 132.54 110 135.57 110 137.5C110 139.43 109.52 142.24 108.93 143.75C108.35 145.26 106.88 147.56 105.68 148.85C104.48 150.14 101.81 152.05 99.75 153.1C97.69 154.14 93.19 155.27 89.75 155.6C86.3 155.93 80.59 155.67 77 155C73.42 154.34 68.92 152.99 67 152C65.08 151.01 62.51 149.14 61.31 147.85C60.1 146.56 58.41 143.81 57.56 141.75C56.7 139.69 55.89 136.65 55.75 135L55.5 131.99L32.5 131.97C33.68 140.13 35.16 144.97 36.56 148C37.96 151.03 41.21 155.66 43.8 158.31C46.38 160.95 50.75 164.4 53.5 165.96C56.25 167.53 61.65 169.78 65.5 170.97C69.35 172.16 76.33 173.36 81 173.64C86.55 173.98 92.45 173.61 98 172.59C102.67 171.73 109.2 169.75 112.5 168.19C115.8 166.63 120.08 163.98 122 162.31C123.92 160.63 126.83 156.84 128.46 153.88C131.04 149.21 131.48 147.25 131.81 139C132.13 130.94 131.84 128.59 129.91 123.5C128.32 119.3 126.1 116 122.51 112.5C119.69 109.75 114.26 105.84 110.44 103.8C106.62 101.77 98.1 98.32 91.5 96.15C84.9 93.97 78.15 91.59 76.5 90.87C74.85 90.15 71.31 88.19 68.62 86.53C65.94 84.86 62.92 82.15 61.9 80.5C60.81 78.72 60.05 75.57 60.03 72.75C60.01 70.14 60.63 66.76 61.4 65.25C62.18 63.74 63.87 61.51 65.15 60.3C66.44 59.09 69.53 57.38 72 56.49C74.47 55.61 79.65 54.87 83.5 54.84C87.35 54.82 92.53 55.34 95 56.01C97.92 56.8 100.95 58.67 103.63 61.36C106.29 64.02 108.21 67.11 109 70C109.67 72.47 110.4 75.06 110.61 75.75C110.89 76.65 114.03 77 121.75 77.01L132.5 77.02C131.54 68.09 130.13 63.25 128.75 60.5C127.38 57.75 124.96 53.98 123.38 52.12C121.79 50.25 118.25 47.12 115.5 45.15C112.75 43.17 107.13 40.5 103 39.21C98.44 37.77 92.17 36.7 87 36.48C82.33 36.27 76.25 36.52 73.5 37.02Z" />
		<path id="Path 5" class="shp3" d="M288.5 70.74C291.8 70.94 296.75 70.94 299.5 70.74C302.25 70.53 299.55 70.37 293.5 70.37C287.45 70.38 285.2 70.54 288.5 70.74Z" />
		<path id="Path 6" class="shp5" d="M456.5 70.72C458.15 70.94 461.3 70.94 463.5 70.73C465.7 70.51 464.35 70.33 460.5 70.33C456.65 70.32 454.85 70.5 456.5 70.72Z" />
		<path id="Path 7" class="shp2" d="M180.5 72.32C178.3 73.03 174.03 75 171 76.71C167.97 78.42 163.59 81.88 161.25 84.41C158.91 86.93 155.71 91.59 154.13 94.75C152.55 97.91 150.53 103.42 149.64 107C148.71 110.73 148.02 117.55 148.02 123C148.03 128.22 148.7 135.31 149.51 138.75C150.33 142.19 152.07 147.14 153.38 149.75C154.69 152.36 157.77 156.75 160.23 159.5C162.68 162.25 167.35 165.94 170.6 167.69C173.84 169.45 179.43 171.58 183 172.43C186.57 173.28 191.75 173.98 194.5 174C197.25 174.01 201.97 173.56 205 172.99C208.03 172.42 213.31 170.62 216.75 168.98C220.19 167.34 225.27 163.86 228.04 161.25C230.81 158.64 233.08 156.05 233.08 155.5C233.09 154.95 230.59 152.36 227.54 149.75C224.5 147.14 221.66 144.99 221.25 144.98C220.84 144.97 219.15 146.37 217.5 148.11C215.85 149.84 212.25 152.32 209.5 153.62C205.62 155.45 202.83 155.98 197 155.97C191.93 155.96 188.2 155.37 185.5 154.15C183.3 153.15 179.57 150.13 177.22 147.42C174.86 144.71 172.27 140.47 171.46 138C170.64 135.53 169.98 132.49 169.99 131.25L170 129L235.5 129.01C234.37 109.51 233.4 103.28 231.99 99C230.8 95.42 228.81 90.7 227.55 88.5C226.3 86.3 223.07 82.56 220.39 80.2C217.7 77.83 213.03 74.95 210 73.79C206.07 72.28 201.64 71.58 194.5 71.35C188.19 71.15 183.03 71.5 180.5 72.32Z" />
		<path id="Path 8" class="shp6" d="M276 73.56C271.88 74.92 266.36 77.59 263.75 79.51C261.14 81.43 257.94 84.69 256.65 86.75C255.36 88.81 253.75 92.3 253.07 94.5C252.38 96.7 252.09 99.06 252.41 99.75C252.83 100.63 256.08 101 263.5 101L274 101C275.61 95.36 277.45 92.89 279.75 91.15C282.43 89.11 285.15 88.11 289.25 87.65C293.28 87.19 296.12 87.44 298.75 88.47C300.81 89.28 303.96 91.53 305.75 93.47C308.81 96.8 309 97.43 309 104.5L309 112C287.27 112.03 281.43 112.57 276.5 113.84C272.65 114.83 267.08 116.96 264.12 118.57C261.16 120.18 257.53 123.08 256.04 125C254.55 126.92 252.59 130.41 251.67 132.75C250.71 135.19 249.99 139.87 249.98 143.75C249.96 147.74 250.62 152.14 251.58 154.5C252.48 156.7 254.66 160.3 256.43 162.5C258.38 164.92 262.2 167.76 266.08 169.69C270.29 171.78 274.73 173.1 279 173.53C283.54 173.99 287.16 173.73 291 172.66C294.02 171.82 298.14 170.54 300.15 169.82C302.15 169.09 304.85 167.5 306.15 166.27C307.44 165.05 308.84 164.03 309.25 164.02C309.66 164.01 310.45 165.8 311 168L312 172C332.06 172 334.13 171.72 334.75 170.41C335.17 169.52 335.01 168.54 334.38 168.16C333.76 167.8 332.92 165.7 332.5 163.5C332.09 161.3 331.47 145.1 331.12 127.5C330.55 97.84 330.34 95.1 328.33 90C326.84 86.24 324.63 83.14 321.33 80.21C318.67 77.85 314.93 75.43 313 74.83C311.07 74.23 308.87 73.24 308.1 72.62C307.28 71.97 301.85 71.42 295.1 71.3C285.13 71.13 282.45 71.45 276 73.56Z" />
		<path id="Path 9" class="shp4" d="M391.81 71.91C390.32 72.34 387.85 73.38 386.31 74.21C384.76 75.05 382.24 77.26 380.71 79.12C379.18 80.98 377.71 82.28 377.45 82C377.19 81.72 376.64 79.57 376.24 77.2L375.5 72.91L356.01 73.5C355.83 149.45 355.82 172.06 355.89 172.75C355.97 173.66 358.83 174 366.5 174L377 174L377.08 102.5C383.72 95.98 387.19 93.76 389.5 93.12C391.7 92.51 396.54 92.01 400.25 92.01L407 92L406.5 71.5C397.2 71.21 393.29 71.48 391.81 71.91Z" />
		<path id="Path 10" class="shp7" d="M448 72.36C445.52 73.03 441.31 74.69 438.64 76.04C435.97 77.39 431.66 80.75 429.05 83.5C426.45 86.25 423.41 90.3 422.3 92.5C421.18 94.7 419.42 98.97 418.39 102C416.87 106.41 416.5 110.38 416.51 122C416.52 134.16 416.87 137.55 418.68 143C419.87 146.57 421.64 151.07 422.61 153C423.59 154.93 426.66 158.78 429.44 161.56C432.22 164.35 437.2 167.9 440.5 169.45C443.88 171.04 449.78 172.73 454 173.32C459.44 174.07 463.35 174.03 468.25 173.17C471.96 172.53 477.36 170.88 480.25 169.52C483.14 168.16 487.52 165.3 490 163.16C492.57 160.95 495.77 156.76 497.46 153.4C499.22 149.9 500.44 145.87 500.46 143.5L500.5 139.5L481.51 139.5C479.56 145.31 477.76 148.36 476.25 150.03C474.74 151.69 471.81 153.72 469.75 154.53C467.69 155.34 463.41 155.99 460.25 155.98C456.15 155.97 453.38 155.32 450.6 153.73C448.45 152.51 445.43 149.93 443.88 148C442.31 146.04 440.35 141.64 439.42 138C438.15 133.01 437.88 128.72 438.28 119.5C438.56 112.9 439.29 105.81 439.9 103.75C440.5 101.69 442.69 98.15 444.75 95.88C446.81 93.61 449.63 91.19 451 90.5C452.38 89.8 455.3 88.92 457.5 88.54C459.78 88.15 463.43 88.36 466 89.04C468.94 89.81 471.94 91.66 474.66 94.36C477.63 97.32 479.13 99.86 479.91 103.25L481 108L501.5 108.02C500.53 99.87 499.27 95.25 498.08 92.5C496.88 89.75 494.01 85.55 491.7 83.17C489.39 80.79 485.7 77.76 483.5 76.43C481.3 75.1 477.02 73.34 474 72.52C470.98 71.7 464.9 71.05 460.5 71.08C456.1 71.11 450.48 71.69 448 72.36Z" />
		<path id="Path 11" class="shp8" d="M355 72.75C355 73.16 358.26 73.38 362.25 73.23C366.24 73.08 371.07 72.81 373 72.64C374.93 72.48 371.66 72.26 365.75 72.17C359.84 72.08 355 72.34 355 72.75Z" />
		<path id="Path 12" class="shp5" d="M407.37 82.5C407.38 88.55 407.54 90.8 407.74 87.5C407.94 84.2 407.94 79.25 407.74 76.5C407.53 73.75 407.37 76.45 407.37 82.5ZM354.46 124C354.46 149.57 354.59 159.93 354.75 147C354.91 134.07 354.91 113.15 354.75 100.5C354.59 87.85 354.46 98.42 354.46 124Z" />
		<path id="Path 13" class="shp8" d="M355.45 117.5C355.45 138.95 355.59 147.5 355.75 136.5C355.91 125.5 355.91 107.95 355.75 97.5C355.59 87.05 355.45 96.05 355.45 117.5Z" />
		<path id="Path 14" class="shp0" d="M185 90.59C183.07 91.43 180.25 93.32 178.71 94.81C177.18 96.29 175.04 99.86 173.96 102.75C172.88 105.64 172 108.9 172 110C172 111.93 172.67 112 192 112L212 112C212.02 106.11 210.84 102.15 209.27 99.04C207.09 94.73 205.55 93.1 202 91.32C199.3 89.96 195.7 89.06 193 89.07C190.53 89.07 186.93 89.76 185 90.59Z" />
		<path id="Path 15" class="shp3" d="M252 101.25C252 101.66 257.06 101.92 263.25 101.83C269.44 101.74 272.93 101.52 271 101.35C269.07 101.18 264.01 100.92 259.75 100.77C255.48 100.62 252 100.84 252 101.25ZM601.24 136.25L601 172L579 172L578.46 106.5L578.5 172.5C598 172.93 601.14 172.67 601.51 171.75C601.79 171.06 601.9 154.75 601.75 135.5L601.47 100.5L601.24 136.25Z" />
		<path id="Path 16" class="shp1" d="M540.44 131C540.44 147.22 540.58 153.75 540.75 145.5C540.92 137.25 540.92 123.97 540.75 116C540.58 108.03 540.44 114.78 540.44 131Z" />
		<path id="Path 17" class="shp5" d="M377.45 138.5C377.45 158.3 377.58 166.63 377.75 157C377.91 147.38 377.91 131.18 377.75 121C377.59 110.83 377.45 118.7 377.45 138.5Z" />
		<path id="Path 18" class="shp1" d="M331.44 131.5C331.44 146.9 331.58 152.97 331.75 145C331.92 137.03 331.92 124.42 331.75 117C331.58 109.58 331.44 116.1 331.44 131.5Z" />
		<path id="Path 19" class="shp3" d="M212 109L212 112C172.03 112 172 112 171.64 109.75C171.34 107.9 171.25 107.99 171.14 110.25L171 113L213 113C213 107.58 212.78 106 212.5 106C212.22 106 212 107.35 212 109ZM541.45 139.5C541.45 157.65 541.58 165.3 541.75 156.5C541.91 147.7 541.91 132.85 541.75 123.5C541.58 114.15 541.45 121.35 541.45 139.5Z" />
		<path id="Path 20" class="shp5" d="M485.5 108.74C488.25 108.94 492.98 108.94 496 108.74C499.02 108.54 496.77 108.37 491 108.37C485.23 108.37 482.75 108.54 485.5 108.74Z" />
		<path id="Path 21" class="shp1" d="M293.5 111.74C296.8 111.94 301.75 111.94 304.5 111.74C307.25 111.53 304.55 111.37 298.5 111.37C292.45 111.38 290.2 111.54 293.5 111.74Z" />
		<path id="Path 22" class="shp5" d="M415.37 122C415.37 127.78 415.54 130.03 415.74 127C415.94 123.97 415.94 119.25 415.74 116.5C415.54 113.75 415.37 116.22 415.37 122ZM438.37 122.5C438.37 128 438.54 130.03 438.74 127C438.94 123.97 438.94 119.47 438.73 117C438.53 114.53 438.36 117 438.37 122.5Z" />
		<path id="Path 23" class="shp0" d="M284 127.7C281.52 128.58 278.8 130.02 277.95 130.9C277.1 131.78 275.63 133.74 274.7 135.25C273.76 136.76 272.99 139.46 272.98 141.25C272.96 143.04 273.64 146.19 274.48 148.25C275.31 150.31 276.56 151.98 277.25 151.97C277.94 151.95 279.74 152.85 281.25 153.97C283.57 155.68 284.95 155.91 289.98 155.41C293.28 155.08 296.53 154.16 297.23 153.36C297.93 152.56 299.29 151.93 300.25 151.96C301.21 151.98 303.35 150.88 305 149.5C307.93 147.05 308 146.8 308.02 137.75C308.03 131.6 307.61 128.08 306.77 127.23C305.93 126.4 302.6 125.99 297 126.03C291.91 126.07 286.7 126.74 284 127.7Z" />
		<path id="Path 24" class="shp3" d="M306.71 127.25C307.35 127.94 308.04 132.32 308.24 137L308.59 145.5C308.98 127.09 308.81 126 307.27 126C305.92 126 305.8 126.28 306.71 127.25Z" />
		<path id="Path 25" class="shp1" d="M309.36 135C309.36 140.22 309.53 142.25 309.74 139.5C309.94 136.75 309.94 132.47 309.74 130C309.53 127.53 309.36 129.78 309.36 135ZM170.15 132.25C170.29 135.19 170.33 135.23 170.65 132.75L171 130L235.5 129.47L170 129L170.15 132.25Z" />
		<path id="Path 26" class="shp5" d="M38 131.74C41.02 131.94 46.2 131.94 49.5 131.74C52.8 131.54 50.33 131.38 44 131.38C37.67 131.38 34.98 131.54 38 131.74Z" />
		<path id="Path 27" class="shp8" d="M132.33 137.5C132.33 141.35 132.51 142.7 132.73 140.5C132.94 138.3 132.94 135.15 132.72 133.5C132.5 131.85 132.32 133.65 132.33 137.5Z" />
		<path id="Path 28" class="shp3" d="M249.35 144C249.35 148.68 249.52 150.47 249.73 148C249.94 145.53 249.94 141.7 249.73 139.5C249.52 137.3 249.35 139.32 249.35 144ZM524.5 172.74C527.8 172.94 532.75 172.94 535.5 172.74C538.25 172.53 535.55 172.37 529.5 172.37C523.45 172.38 521.2 172.54 524.5 172.74Z" />
		<path id="Path 29" class="shp4" d="M538.5 190.67C538.04 191.03 537.74 192.16 537.83 193.17C537.93 194.28 538.79 195 540 195C541.1 195 542.23 194.55 542.5 194C542.77 193.45 542.44 192.3 541.75 191.46C541.06 190.61 540.24 189.93 539.92 189.96C539.6 189.98 538.96 190.3 538.5 190.67Z" />
		<path id="Path 30" class="shp5" d="M434.42 210C434.42 220.72 434.57 225.22 434.75 220C434.93 214.78 434.93 206 434.75 200.5C434.57 195 434.42 199.28 434.42 210Z" />
		<path id="Path 31" class="shp4" d="M435 210C435 228.33 435.07 229 437 229C438.9 229 439.01 228.25 439.25 213.75L439.5 198.5C450.4 225.49 452 228.5 453.53 228.5C455.06 228.5 456.66 225.51 461.47 213.65L467.5 198.8C467.99 228.25 468.1 229 470 229C471.21 229 472.03 228.31 472.08 227.25C472.12 226.29 472.18 223.93 472.2 222C472.23 220.07 472.19 212.31 472.12 204.75L472 191C466.65 190.94 466.2 191.67 461.1 204.22C458.12 211.52 455.16 218.63 454.51 220C453.38 222.38 453.16 222.09 450.04 214C448.24 209.32 445.46 202.24 443.88 198.25C441.2 191.5 440.79 191 438 191L435 191L435 210Z" />
		<path id="Path 32" class="shp8" d="M472.39 204.5C472.4 212.2 472.55 215.13 472.74 211C472.93 206.88 472.93 200.57 472.74 197C472.55 193.43 472.39 196.8 472.39 204.5Z" />
		<path id="Path 33" class="shp4" d="M487.14 201.75C485.29 202.71 482.93 205.07 481.89 207C480.85 208.93 479.99 212.41 480 214.75C480 217.09 480.68 220.35 481.5 222C482.32 223.65 484.24 225.92 485.75 227.03C487.53 228.35 490 229.06 492.75 229.03C496.1 229.01 497.77 228.32 500.63 225.75C503.9 222.83 504.31 221.9 504.69 216.5C505 212.04 504.65 209.6 503.3 207C502.28 205 500 202.77 498 201.8C496.07 200.86 493.6 200.07 492.5 200.04C491.4 200.02 488.99 200.78 487.14 201.75ZM557.41 201.46C555.71 202.22 553.47 204.11 552.43 205.67C551.39 207.23 550.27 210.3 549.95 212.5C549.62 214.7 549.86 218.3 550.47 220.5C551.24 223.28 552.64 225.2 555.04 226.78C557.3 228.27 559.97 229.05 562.75 229.03C565.79 229.01 567.78 228.31 569.75 226.59C571.26 225.26 572.16 223.79 571.74 223.34C571.32 222.88 569.79 223.18 568.34 224C566.89 224.82 564.15 225.5 562.26 225.5C559.77 225.5 558.17 224.75 556.41 222.75C555.09 221.24 554 219.1 554 218C554 216.14 554.67 216 563.5 216L573 216C572.95 210.19 572.11 207.15 571.09 205.5C570.07 203.85 567.72 201.93 565.87 201.23C564.02 200.54 562.05 199.99 561.5 200.02C560.95 200.05 559.11 200.7 557.41 201.46ZM585.5 201.03C583.64 201.55 581.74 203.19 580.5 205.34C578.65 208.54 578.62 208.98 580.08 211.15C580.95 212.44 582.97 214.01 584.58 214.64C586.19 215.27 589.3 216.41 591.5 217.18C594.37 218.18 595.57 219.2 595.75 220.79C595.9 222.15 595.14 223.6 593.75 224.56C592.34 225.53 590.38 225.91 588.5 225.56C586.85 225.26 584.49 223.89 583.25 222.51C582.01 221.13 580.33 220.22 579.5 220.5C578.33 220.89 578.23 221.5 579.02 223.25C579.58 224.49 581.38 226.29 583.02 227.25C584.66 228.21 587.69 229 589.75 229C591.81 228.99 594.96 228.09 596.75 227C599.35 225.4 600 224.35 599.98 221.75C599.98 219.96 599.64 218 599.23 217.39C598.83 216.78 597.15 215.59 595.5 214.74C593.85 213.9 590.59 212.71 588.25 212.1C584.44 211.11 584 210.69 584 208C584 206.22 584.61 204.8 585.5 204.5C586.33 204.22 588.35 204 590 204C591.92 204 593.45 204.72 594.25 206C594.94 207.11 596.51 208.01 597.75 208C598.99 208 600 207.78 600 207.5C600 207.22 599.21 205.84 598.25 204.43C597.29 203.02 594.92 201.45 593 200.94C591.08 200.43 589.27 200.05 589 200.1C588.73 200.14 587.15 200.56 585.5 201.03ZM509.28 202.16C509.53 202.9 511.67 208.9 514.03 215.5C516.39 222.1 518.81 227.83 519.41 228.23C520.01 228.64 520.89 228.86 521.37 228.73C521.85 228.61 524.44 222.43 527.13 215C529.81 207.57 532.01 201.39 532.01 201.25C532 201.11 531 201.11 529.78 201.25C527.9 201.46 527.09 202.99 524.53 211.17C522.86 216.48 521.19 221.21 520.81 221.67C520.43 222.13 518.63 217.78 516.8 212C513.94 202.95 513.16 201.45 511.16 201.16C509.56 200.93 508.97 201.24 509.28 202.16ZM538 215C538 228.33 538.1 229 540 229C541.21 229 542.03 228.31 542.07 227.25C542.1 226.29 542.12 221 542.1 215.5C542.08 210 542.05 204.49 542.03 203.25C542.01 201.68 541.4 201 540 201C538.1 201 538 201.67 538 215Z" />
		<path id="Path 34" class="shp0" d="M489.36 205.43C488.18 206.17 486.75 207.62 486.18 208.64C485.61 209.66 485.11 212.64 485.07 215.25C485.01 219.04 485.51 220.51 487.5 222.5C489.06 224.06 491.13 225 493 225C495.11 225 496.6 224.19 498.03 222.25C499.35 220.47 500.06 218 500.03 215.25C500.02 212.91 499.44 209.88 498.75 208.5C498.06 207.13 496.49 205.56 495.25 205C494.01 204.45 492.66 204.02 492.25 204.04C491.84 204.05 490.54 204.68 489.36 205.43ZM557.56 206.07C556.05 207.21 554.85 209.01 554.9 210.07C554.99 211.77 555.78 212 561.5 212C567.01 212 568 211.73 568.03 210.25C568.04 209.29 567.03 207.5 565.78 206.27C564.52 205.05 562.78 204.03 561.9 204.02C561.02 204.01 559.07 204.93 557.56 206.07Z" />
		<path id="Path 35" class="shp5" d="M439.36 216C439.36 221.22 439.53 223.25 439.74 220.5C439.94 217.75 439.94 213.47 439.74 211C439.53 208.53 439.36 210.78 439.36 216Z" />
		<path id="Path 36" class="shp8" d="M542.35 215.5C542.35 220.45 542.52 222.7 542.73 220.5C542.94 218.3 542.94 214.25 542.74 211.5C542.53 208.75 542.36 210.55 542.35 215.5Z" />
		<path id="Path 37" class="shp5" d="M467.33 217.5C467.33 221.35 467.51 222.7 467.73 220.5C467.94 218.3 467.94 215.15 467.72 213.5C467.5 211.85 467.32 213.65 467.33 217.5Z" />
	</g>
</svg>